<?xml version="1.0"?>
<svg xmlns="http://www.w3.org/2000/svg" width="240" height="40" viewBox="0 0 240 40" fill="none">
<path d="M91 2.5L24.5 6.5L21 36L38 38.5L45.5 36H55L60 34L117 38.5L225 34L232.5 1L174.5 3L95.5 6.5L91 2.5Z" fill="#F2E900"/>
<path d="M45.5 36L38 38.5L30.5 11L45.5 36Z" fill="#FFF95D"/>
<path d="M122 29L83 2.5L91 2L122 29Z" fill="#FFF95D"/>
<path d="M39.9998 20.0882C39.9558 31.1355 30.947 40.0439 19.9119 39.9998C8.87674 39.9557 -0.04389 30.9591 0.000162457 19.9118C0.044215 8.86448 9.05295 -0.043938 20.0881 0.000163037C31.1453 0.0442641 40.0439 9.04088 39.9998 20.0882Z" fill="#221F1F"/>
<path d="M26.9935 29.6756C24.9443 33.3599 22.404 36.3802 19.5649 36.316C17.7931 36.2731 16.1067 35.6091 14.5697 34.5595C15.0607 33.6598 18.156 29.1615 26.9935 29.6756ZM38.8837 20.1435C38.841 30.5753 30.345 39.015 19.9278 38.9507C9.51052 38.9079 1.14258 30.4039 1.14258 19.9721C1.14258 13.2032 4.51537 8.34077 7.71739 5.72747C11.6452 2.53581 14.3135 4.97775 15.2528 6.84133C15.1461 6.04877 14.8259 3.7782 13.9507 2.15024C15.8719 1.4862 17.9425 1.12205 20.0985 1.14347C30.5158 1.20773 38.9264 9.69026 38.8837 20.1435ZM19.0098 9.26185C21.7422 7.39827 26.4599 6.37008 28.9574 10.2686C27.4418 1.35768 20.8884 6.47718 19.0098 9.26185ZM15.2101 17.6801C15.7865 17.0375 16.4482 16.3949 17.2167 15.8165C20.6322 13.1818 24.3679 12.5178 25.5847 14.3599C26.0543 15.0668 26.0756 16.0522 25.7127 17.1232C26.9295 15.1097 27.3137 13.2461 26.5666 12.2179C25.3071 10.5042 21.4007 11.6824 17.8358 14.8526C16.7898 15.7309 15.9146 16.7162 15.2101 17.6801ZM9.25436 19.2652C10.9834 19.5865 12.862 17.3802 13.4383 14.2957C14.0147 11.2111 13.0968 8.46929 11.3677 8.12656C9.6386 7.80526 7.76008 10.0116 7.18372 13.0961C6.60736 16.1593 7.52527 18.9225 9.25436 19.2652ZM33.2908 15.5381C16.7471 26.6553 5.32655 21.0217 5.32655 21.0217C5.15578 24.8774 11.7519 36.723 19.6076 36.8729C27.4845 37.0229 33.2908 15.5381 33.2908 15.5381ZM7.65335 13.1604C8.18702 10.3329 9.80938 8.27651 11.2823 8.5764C12.7552 8.85486 13.5237 11.3825 13.0114 14.21C12.4777 17.0375 10.8554 19.0939 9.38244 18.794C7.88816 18.5155 7.11968 15.9879 7.65335 13.1604ZM10.7913 15.5595C11.4531 15.7094 12.1789 14.8955 12.435 13.7602C12.6912 12.6249 12.3496 11.5753 11.6879 11.4467C11.2396 11.3396 10.77 11.6824 10.4284 12.2607C10.7273 12.4107 10.8767 12.7962 10.7273 13.1175C10.5992 13.4174 10.3004 13.5674 10.0015 13.5031C9.87342 14.5099 10.1936 15.4095 10.7913 15.5595Z" fill="#05BC52"/>
<path d="M48 20.5L55 36L60 34L48 20.5Z" fill="#FFF95D"/>
<path d="M195 5L213 34.5H218.5L195 5Z" fill="#FFF95D"/>
<path d="M121 38.5H117L87 12L121 38.5Z" fill="#FFF95D"/>
<path d="M63.4256 10.9149V17.1234C62.2528 17.777 60.9063 18.1473 59.6684 18.1473C57.9961 18.1473 56.9536 17.2324 56.9536 15.7728V10.9149L54 10.8932V15.8164C54 18.888 56.0849 21.001 59.082 21.001C60.6674 21.001 62.2094 20.3039 63.4256 19.0622V26.1639H66.3792V10.9149H63.4256Z" fill="#221F1F"/>
<path d="M74.8267 26.4253C78.2147 26.4253 80.6688 24.0726 80.6688 20.8268C80.6688 17.5809 78.2147 15.2282 74.8267 15.2282C71.4387 15.2282 68.9845 17.5809 68.9845 20.8268C68.9845 24.0726 71.4387 26.4253 74.8267 26.4253ZM74.8267 23.9855C73.0675 23.9855 71.873 22.7002 71.873 20.8268C71.873 18.9533 73.0675 17.668 74.8267 17.668C76.5858 17.668 77.7803 18.9533 77.7803 20.8268C77.7803 22.7002 76.5858 23.9855 74.8267 23.9855Z" fill="#221F1F"/>
<path d="M89.4899 15.2282C87.9479 15.2282 86.6883 15.9689 85.8847 17.2324V15.4896H83.0614V31H85.8847V24.4212C86.6883 25.6846 87.9479 26.4253 89.4899 26.4253C92.4218 26.4253 94.4199 24.138 94.4199 20.8268C94.4199 17.5156 92.4218 15.2282 89.4899 15.2282ZM88.6863 24.0508C86.9923 24.0508 85.8195 22.7438 85.8195 20.8268C85.8195 18.9097 86.9923 17.6027 88.6863 17.6027C90.3586 17.6027 91.5314 18.9097 91.5314 20.8268C91.5314 22.7438 90.3586 24.0508 88.6863 24.0508Z" fill="#221F1F"/>
<path d="M103.972 15.4896V19.4761H99.6281V15.4896H96.8048V26.1639H99.6281V21.9595H103.972V26.1639H106.795V15.4896H103.972Z" fill="#221F1F"/>
<path d="M114.171 15.2282C112.65 15.2282 110.783 15.8382 109.697 16.5788V19.4544C110.717 18.4305 112.455 17.6898 114.062 17.6898C115.474 17.6898 116.212 18.0602 116.212 18.7137C116.212 19.1712 115.995 19.4326 114.67 19.694L113.237 19.9554C110.218 20.5 108.958 21.6981 108.958 23.3973C108.958 25.2272 110.392 26.4253 112.585 26.4253C114.062 26.4253 115.365 25.7718 116.212 24.639V26.1639H118.949V19.4326C118.949 16.7749 117.168 15.2282 114.171 15.2282ZM113.128 24.2033C112.346 24.2033 111.847 23.7676 111.847 23.027C111.847 22.3517 112.542 21.916 113.91 21.6328L114.453 21.5239C115.235 21.3714 115.799 21.1317 116.212 20.8921V21.5239C116.212 23.332 114.952 24.2033 113.128 24.2033Z" fill="#221F1F"/>
<path d="M137.185 15.4896H127.303V26.1639H130.127V18.0602H134.362V26.1639H137.185V15.4896Z" fill="#221F1F"/>
<path d="M140.067 15.4678H141.609L143.76 10H140.654L140.067 15.4678Z" fill="#221F1F"/>
<path d="M152.515 15.4896H147.498C144.849 15.4896 143.285 16.7313 143.285 18.9097C143.285 20.4564 144.219 21.5021 145.522 22.0031L142.243 26.1639H145.544L148.497 22.3299H149.714V26.1639H152.515V15.4896ZM147.672 20.195C146.695 20.195 146.174 19.7811 146.174 18.9533C146.174 18.1691 146.717 17.7552 147.737 17.7552H149.714V20.195H147.672Z" fill="#221F1F"/>
<path d="M164.458 15.4896H154.468V17.9512H158.051V26.1639H160.874V17.9512H164.458V15.4896Z" fill="#221F1F"/>
<path d="M173.579 15.4896V19.4761H169.236V15.4896H166.413V26.1639H169.236V21.9595H173.579V26.1639H176.403V15.4896H173.579Z" fill="#221F1F"/>
<path d="M187.318 15.4896L182.258 20.5V15.4896H179.435V26.5996L186.819 19.3672V26.1639H189.642V15.4896H187.318Z" fill="#221F1F"/>
<path d="M201.915 23.7023V15.4896H199.091V23.7023H194.856V15.4896H192.033V26.1639H200.481V28.9958L203.218 27.1878V23.7023H201.915Z" fill="#221F1F"/>
<path d="M214 15.4896H208.983C206.334 15.4896 204.77 16.7313 204.77 18.9097C204.77 20.4564 205.704 21.5021 207.007 22.0031L203.727 26.1639H207.029L209.982 22.3299H211.198V26.1639H214V15.4896ZM209.157 20.195C208.18 20.195 207.658 19.7811 207.658 18.9533C207.658 18.1691 208.201 17.7552 209.222 17.7552H211.198V20.195H209.157Z" fill="#221F1F"/>
</svg>
