<svg fill="none" height="40" viewBox="0 0 72 40" width="72" xmlns="http://www.w3.org/2000/svg" aria-hidden="true"><path fill-rule="evenodd" clip-rule="evenodd" d="M4.80258 6.46363C1.97442 8.56517 7.52926 15 7.52926 15C7.52926 15 13.0185 8.56517 10.1904 6.46363C9.99458 6.2898 9.76891 6.1605 9.52659 6.08329C9.28428 6.00607 9.03026 5.98251 8.77949 6.01408C8.52872 6.04558 8.28625 6.13157 8.06642 6.26688C7.84655 6.4022 7.65379 6.5841 7.49948 6.80196C7.34458 6.58393 7.15124 6.40185 6.93089 6.26648C6.71053 6.13104 6.46763 6.04506 6.21633 6.01355C5.96508 5.98205 5.71054 6.0056 5.46779 6.08288C5.225 6.16021 4.9988 6.28962 4.80258 6.46363ZM6.91472 7.34848C7.12168 7.54582 7.3114 7.76361 7.48156 7.99912L7.49948 7.99263C7.69144 7.72819 7.91408 7.49198 8.16171 7.28992C8.37148 7.0716 8.65038 6.94972 8.94034 6.94972C9.23036 6.94972 9.5092 7.0716 9.71898 7.28992C9.83591 7.36941 9.93369 7.47819 10.0043 7.60719C10.0748 7.7362 10.1161 7.88174 10.1247 8.03167V8.22685C10.1247 9.62572 8.7226 11.942 7.52926 13.5296C6.30614 11.9355 4.89208 9.62572 4.89208 8.20732V8.02513C4.90159 7.87637 4.94328 7.73211 5.01385 7.60433C5.08435 7.47649 5.18166 7.36877 5.2978 7.28992C5.53293 7.09691 5.82156 6.99742 6.11572 7.00806C6.40988 7.0187 6.69187 7.13887 6.91472 7.34848Z" fill="white"></path>
  <path d="M22.1339 14.9762H21.0075V7.31577H19.1477V14.9762H18V6.17224H22.1339V14.9762Z" fill="white"></path>
  <path fill-rule="evenodd" clip-rule="evenodd" d="M25.9914 6.01233C25.0988 6.01233 24.068 6.50414 24.068 7.85673V13.2792C24.068 14.6441 25.1094 15.1237 25.9914 15.1237C26.8735 15.1237 27.9043 14.6195 27.9043 13.2792V7.85673C27.9043 6.49188 26.8841 6.01233 25.9914 6.01233ZM25.9914 7.16815C26.3422 7.16815 26.7566 7.35257 26.7566 7.85673V13.2792C26.7566 13.7834 26.3422 13.9678 25.9914 13.9678C25.6407 13.9678 25.2156 13.7834 25.2156 13.2792V7.85673C25.2156 7.34031 25.6407 7.16815 25.9914 7.16815Z" fill="white"></path>
  <path fill-rule="evenodd" clip-rule="evenodd" d="M29.6472 14.976V6.17213H31.7726C31.9833 6.14736 32.196 6.1736 32.3974 6.24917C32.5987 6.32474 32.7842 6.44797 32.9422 6.61107C33.1001 6.77418 33.227 6.97351 33.3147 7.19643C33.4025 7.41935 33.4491 7.66093 33.4517 7.90584V8.97564C33.4423 9.24909 33.3791 9.51642 33.2667 9.75723C33.1543 9.99804 32.9959 10.2059 32.8034 10.3651C33.0669 10.4841 33.292 10.6946 33.4481 10.9676C33.604 11.2406 33.6833 11.5627 33.6749 11.8898V12.9718C33.6865 13.2391 33.6493 13.5062 33.5655 13.7556C33.4818 14.0051 33.3534 14.2312 33.1889 14.4193C33.0244 14.6074 32.8273 14.7531 32.6107 14.8469C32.3941 14.9408 32.1629 14.9806 31.932 14.9638L29.6472 14.976ZM32.304 8.0411C32.3129 7.94273 32.303 7.84331 32.2748 7.74991C32.2466 7.65657 32.2009 7.57157 32.1409 7.50104C32.081 7.4305 32.0083 7.37621 31.9281 7.34202C31.8479 7.30783 31.7622 7.29463 31.677 7.30336H30.8162V9.86096H31.6345C31.7194 9.86852 31.8047 9.85455 31.8845 9.81997C31.9643 9.78545 32.0366 9.73111 32.0963 9.66085C32.156 9.59054 32.2017 9.50603 32.2303 9.41313C32.2588 9.32029 32.2695 9.22131 32.2615 9.12316L32.304 8.0411ZM32.5271 11.8898C32.533 11.7685 32.5161 11.6473 32.4777 11.5343C32.4392 11.4213 32.3802 11.3193 32.3045 11.2352C32.2288 11.1511 32.1382 11.087 32.0391 11.0471C31.94 11.0073 31.8346 10.9927 31.7301 11.0044H30.8162V13.8448H31.7301C31.8342 13.8596 31.9398 13.8476 32.0394 13.8096C32.139 13.7717 32.2301 13.7088 32.3062 13.6254C32.3824 13.542 32.4416 13.4402 32.4799 13.3272C32.518 13.2142 32.5342 13.0928 32.5271 12.9718V11.8898Z" fill="white"></path>
  <path d="M35.4177 14.9762H38.7865V13.8203H36.5654V11.0046H38.4039V9.86105H36.5654V7.31577H38.7865V6.17224H35.4177V14.9762Z" fill="white"></path>
  <path fill-rule="evenodd" clip-rule="evenodd" d="M40.5717 14.9762V6.17224H42.5377C43.749 6.17224 44.5251 6.93461 44.5251 8.34862V9.43068C44.5251 10.8324 43.749 11.5947 42.5377 11.5947H41.73V14.9762H40.5717ZM43.3773 8.36094C43.3877 8.22744 43.3739 8.09289 43.3361 7.96619C43.2982 7.83943 43.2376 7.72344 43.1584 7.62579C43.079 7.52814 42.9826 7.45109 42.8756 7.39978C42.7686 7.34847 42.6534 7.324 42.5377 7.32809H41.73V10.4758H42.5483C42.6638 10.4789 42.7786 10.4538 42.8852 10.4021C42.9918 10.3505 43.0879 10.2734 43.167 10.176C43.2461 10.0786 43.3067 9.96296 43.3451 9.8367C43.3829 9.71038 43.3976 9.57622 43.3877 9.443L43.3773 8.36094Z" fill="white"></path>
  <path d="M49.0199 14.9762H50.1678V6.17224H49.0199V9.86105H47.1816V6.17224H46.0338V14.9762H47.1816V11.0046H49.0199V14.9762Z" fill="white"></path>
  <path d="M55.2474 14.9762V9.443L53.3239 14.9762H52.2613V6.17224H53.4196V11.7054L55.3431 6.17224H56.4057V14.9762H55.2474Z" fill="white"></path>
  <path d="M62.1659 11.9021H61.018V13.2792C61.018 13.7834 60.6037 13.9678 60.2528 13.9678C59.9024 13.9678 59.4771 13.7834 59.4771 13.2792V7.84439C59.4771 7.32796 59.9024 7.1558 60.2528 7.1558C60.6037 7.1558 61.018 7.34028 61.018 7.84439V9.23387H62.1659V7.84439C62.1659 6.47954 61.1454 6 60.2528 6C59.3601 6 58.3292 6.49185 58.3292 7.84439V13.2792C58.3292 14.6441 59.371 15.1237 60.2528 15.1237C61.135 15.1237 62.1659 14.6195 62.1659 13.2792V11.9021Z" fill="white"></path>
  <path fill-rule="evenodd" clip-rule="evenodd" d="M67.9787 12.7998C67.9787 14.2261 67.2031 14.9762 65.9913 14.9762H64.0464V6.17224H65.1943V9.54137H66.0126C67.2244 9.54137 68 10.2914 68 11.7178L67.9787 12.7998ZM65.9913 13.8203C66.1063 13.8252 66.2209 13.8017 66.3275 13.7515C66.4345 13.7012 66.5306 13.6253 66.6097 13.5288C66.6893 13.4324 66.7499 13.3175 66.7882 13.1918C66.8261 13.0661 66.8408 12.9325 66.8308 12.7998V11.7178C66.8346 11.5861 66.8157 11.455 66.7754 11.3318C66.7352 11.2087 66.6741 11.0959 66.596 11C66.5183 10.9041 66.4246 10.8268 66.3208 10.7728C66.2171 10.7187 66.1049 10.6888 65.9913 10.6848H65.173V13.8203H65.9913Z" fill="white"></path>
  <path d="M22.2358 28.8415L23.9551 32.8192H25.1303V32.5979L23.3566 28.3374L25.0324 24.2305V24.0092H23.8572L22.2902 27.698H21.942V24.0092H20.7668V27.698H20.4294L18.8516 24.0092H17.6764V24.2305L19.3739 28.3374L17.5894 32.5979V32.8192H18.7319L20.4838 28.8415H20.7668V32.8192H21.942V28.8415H22.2358Z" fill="white"></path>
  <path d="M29.6134 32.8192V27.286L27.6438 32.8192H26.5557V24.0092H27.7309V29.5424L29.7004 24.0092H30.7886V32.8192H29.6134Z" fill="white"></path>
  <path fill-rule="evenodd" clip-rule="evenodd" d="M32.7147 24.0091V32.8192H35.0542C35.2906 32.8359 35.5274 32.7961 35.7492 32.7023C35.971 32.6084 36.1728 32.4627 36.3413 32.2747C36.5097 32.0866 36.6411 31.8604 36.7269 31.611C36.8126 31.3616 36.8508 31.0945 36.8388 30.8272V29.739C36.8474 29.4119 36.7663 29.0897 36.6066 28.8168C36.4468 28.5438 36.2163 28.3334 35.9465 28.2143C36.1436 28.0552 36.3058 27.8473 36.4208 27.6065C36.5359 27.3657 36.6007 27.0983 36.6103 26.8248V25.7428C36.6076 25.4979 36.5599 25.2563 36.4701 25.0333C36.3803 24.8104 36.2504 24.6111 36.0886 24.448C35.9269 24.2849 35.7369 24.1617 35.5307 24.0861C35.3245 24.0105 35.1067 23.9843 34.891 24.0091H32.7147ZM35.4052 25.5868C35.4341 25.6802 35.4443 25.7797 35.4351 25.878V26.9601C35.4433 27.0582 35.4324 27.1572 35.4032 27.2501C35.374 27.343 35.3271 27.4275 35.266 27.4978C35.2048 27.568 35.1308 27.6224 35.0491 27.6569C34.9674 27.6915 34.8801 27.7054 34.7931 27.6978H33.9117V25.1403H34.7931C34.8803 25.1316 34.9681 25.1448 35.0502 25.1789C35.1324 25.2131 35.2068 25.2674 35.2682 25.338C35.3296 25.4085 35.3764 25.4935 35.4052 25.5868ZM35.613 29.3712C35.6523 29.4842 35.6696 29.6054 35.6636 29.7267V30.8087C35.6707 30.93 35.6541 31.0515 35.615 31.1648C35.576 31.278 35.5154 31.3801 35.4375 31.464C35.3597 31.5479 35.2665 31.6114 35.1646 31.65C35.0626 31.6888 34.9544 31.7017 34.8475 31.6879H33.9117V28.8414H34.8475C34.9544 28.8296 35.0623 28.8442 35.1639 28.8841C35.2654 28.9239 35.3581 28.9881 35.4356 29.0721C35.5131 29.1562 35.5736 29.2583 35.613 29.3712Z" fill="white"></path>
  <path d="M41.4526 32.8193V27.2861L39.4831 32.8193H38.3949V24.0092H39.5701V29.5424L41.5396 24.0092H42.6278V32.8193H41.4526Z" fill="white"></path>
  <path d="M48.8629 26.825V32.8193H50V24.0092H48.9444L47.2798 27.7718L45.6472 24.0092H44.5591V32.8439H45.7345V26.825L47.2958 30.3417L48.8629 26.825Z" fill="white"></path>
  <path fill-rule="evenodd" clip-rule="evenodd" d="M72 20H54V38H14V20H0V1H72V20ZM1 2H14V19H1V2ZM15 19V2H71V19H15ZM15 20H53V37H15V20Z" fill="white"></path></svg>
